<?xml version="1.0" encoding="UTF-8" standalone="no"?>
<svg
   version="1.1"
   width="30.120518cm"
   height="10.10521cm"
   viewBox="0 0 3.0120518e+08 101052100"
   id="svg552"
   sodipodi:docname="keyboard-brd.svg"
   inkscape:version="1.2 (1:1.2.1+202207142221+cd75a1ee6d)"
   xmlns:inkscape="http://www.inkscape.org/namespaces/inkscape"
   xmlns:sodipodi="http://sodipodi.sourceforge.net/DTD/sodipodi-0.dtd"
   xmlns="http://www.w3.org/2000/svg"
   xmlns:svg="http://www.w3.org/2000/svg"
   xmlns:rdf="http://www.w3.org/1999/02/22-rdf-syntax-ns#"
   xmlns:cc="http://creativecommons.org/ns#"
   xmlns:dc="http://purl.org/dc/elements/1.1/">
  <defs
     id="defs556" />
  <sodipodi:namedview
     id="namedview554"
     pagecolor="#ffffff"
     bordercolor="#666666"
     borderopacity="1.0"
     inkscape:showpageshadow="2"
     inkscape:pageopacity="0.0"
     inkscape:pagecheckerboard="0"
     inkscape:deskcolor="#d1d1d1"
     inkscape:document-units="cm"
     showgrid="false"
     inkscape:zoom="1.2700135"
     inkscape:cx="527.15974"
     inkscape:cy="213.77725"
     inkscape:window-width="2560"
     inkscape:window-height="1369"
     inkscape:window-x="0"
     inkscape:window-y="0"
     inkscape:window-maximized="1"
     inkscape:current-layer="svg552"
     showguides="true">
    <sodipodi:guide
       position="-43431428,1.6337667e+08"
       orientation="1,0"
       id="guide1072"
       inkscape:locked="false" />
  </sodipodi:namedview>
  <title
     id="title296">SVG Picture created as keyboard-brd.svg date 2022/08/28 08:12:12 </title>
  <desc
     id="desc298">Picture generated by PCBNEW </desc>
  <path
     id="path356"
     style="fill:#000000;fill-opacity:0;stroke:#ff0000;stroke-width:100000;stroke-linecap:round;stroke-linejoin:round;stroke-opacity:1"
     d="m 30652777,25703362 c 0,155978 -15325,311578 -45755,464559 -30430,152981 -75817,302601 -135507,446706 -59690,144105 -133394,281996 -220051,411687 -86657,129690 -185846,250553 -296139,360846 -110293,110293 -231156,209482 -360846,296139 -129691,86657 -267582,160361 -411687,220051 -144105,59690 -293725,105077 -446706,135507 -152981,30430 -308581,45755 -464559,45755 -155978,0 -311578,15325 -464559,45755 -152981,30430 -302601,75817 -446706,135507 -144105,59690 -281996,133394 -411687,220051 -129690,86657 -250553,185846 -360846,296139 -110293,110293 -209482,231156 -296139,360846 -86657,129691 -160361,267582 -220051,411687 -59690,144105 -105077,293725 -135507,446706 -30430,152981 -45755,308581 -45755,464559 v 14287500 c 0,155978 -15325,311578 -45755,464559 -30430,152981 -75817,302601 -135507,446706 -59690,144105 -133394,281996 -220051,411687 -86657,129690 -185846,250553 -296139,360846 -110293,110293 -231156,209482 -360846,296139 -129691,86657 -267582,160361 -411687,220051 -144105,59690 -293725,105077 -446706,135507 -152981,30430 -308581,45755 -464559,45755 -155978,0 -311578,15325 -464559,45755 -152981,30430 -302601,75817 -446706,135507 -144105,59690 -281996,133394 -411687,220051 -129690,86657 -250553,185846 -360846,296139 -110293,110293 -209482,231156 -296139,360846 -86657,129691 -160361,267582 -220051,411687 -59690,144105 -105077,293725 -135507,446706 -30430,152981 -45755,308581 -45755,464559 v 14287500 c 0,155978 -15325,311578 -45755,464559 -30430,152981 -75817,302601 -135507,446706 -59690,144105 -133394,281996 -220051,411687 -86657,129690 -185846,250553 -296139,360846 -110293,110293 -231156,209482 -360846,296139 -129691,86657 -267582,160361 -411687,220051 -144105,59690 -293726,105077 -446706,135507 -152981,30430 -308581,45755 -464559,45755 -155978,0 -311578,15325 -464559,45755 -152981,30430 -302601,75817 -446706,135507 -144105,59690 -281996,133394 -411687,220051 -129690,86657 -250553,185846 -360846,296139 -110293,110293 -209482,231156 -296139,360846 -86657,129691 -160361,267582 -220051,411687 -59690,144105 -105077,293725 -135507,446706 -30430,152981 -45755,308581 -45755,464559 v 19843750 c 0,207970 20434,415438 61007,619412 40573,203974 101089,403468 180675,595608 79587,192139 177860,375994 293402,548915 115542,172921 247795,334072 394852,481129 147057,147057 308207,279310 481128,394852 172921,115542 356777,213815 548916,293402 192140,79586 391634,140102 595608,180675 203974,40573 411442,61007 619412,61007 h 242887503 c 207970,0 415440,-20434 619410,-61007 203980,-40573 403470,-101089 595610,-180675 192140,-79587 375990,-177860 548920,-293402 172920,-115542 334070,-247795 481120,-394852 147060,-147057 279310,-308208 394860,-481129 115540,-172921 213810,-356776 293400,-548915 79580,-192140 140100,-391634 180670,-595608 40580,-203974 61010,-411442 61010,-619412 V 74915862 c 0,-155978 15330,-311578 45760,-464559 30430,-152981 75810,-302601 135500,-446706 59690,-144105 133400,-281996 220050,-411687 86660,-129690 185850,-250553 296140,-360846 110300,-110293 231160,-209482 360850,-296139 129690,-86657 267580,-160361 411690,-220051 144100,-59690 293720,-105077 446700,-135507 152980,-30430 308580,-45755 464560,-45755 155980,0 311580,-15325 464560,-45755 152980,-30430 302600,-75817 446710,-135507 144100,-59690 281990,-133394 411680,-220051 129690,-86657 250560,-185846 360850,-296139 110290,-110293 209480,-231156 296140,-360846 86650,-129691 160360,-267582 220050,-411687 59690,-144105 105080,-293725 135510,-446706 30430,-152981 45750,-308581 45750,-464559 V 55865862 c 0,-155978 15330,-311578 45760,-464559 30430,-152981 75810,-302601 135500,-446706 59690,-144105 133400,-281996 220050,-411687 86660,-129690 185850,-250553 296140,-360846 110300,-110293 231160,-209482 360850,-296139 129690,-86657 267580,-160361 411690,-220051 144100,-59690 293720,-105077 446700,-135507 152980,-30430 308580,-45755 464560,-45755 155980,0 311580,-15325 464560,-45755 152980,-30430 302600,-75817 446710,-135507 144100,-59690 281990,-133394 411680,-220051 129690,-86657 250560,-185846 360850,-296139 110290,-110293 209480,-231156 296140,-360846 86650,-129691 160360,-267582 220050,-411687 59690,-144105 105080,-293725 135510,-446706 30430,-152981 45750,-308581 45750,-464559 V 36815862 c 0,-155978 15330,-311578 45760,-464559 30430,-152981 75810,-302601 135500,-446706 59690,-144105 133400,-281996 220050,-411687 86660,-129690 185850,-250553 296140,-360846 110300,-110293 231160,-209482 360850,-296139 129690,-86657 267580,-160361 411690,-220051 144100,-59690 293720,-105077 446700,-135507 152980,-30430 308580,-45755 464560,-45755 155980,0 311580,-15325 464560,-45755 152980,-30430 302600,-75817 446710,-135507 144100,-59690 281990,-133394 411680,-220051 129690,-86657 250560,-185846 360850,-296139 110290,-110293 209480,-231156 296140,-360846 86650,-129691 160360,-267582 220050,-411687 59690,-144105 105080,-293725 135510,-446706 30430,-152981 45750,-308581 45750,-464559 V 12209612 c 0,-207971 -20430,-415438 -61010,-619412 -40570,-203974 -101090,-403469 -180670,-595608 -79590,-192140 -177860,-375995 -293400,-548916 -115550,-172921 -247800,-334071 -394860,-481128.1 -147050,-147057.3 -308200,-279309.9 -481120,-394852 -172930,-115542.1 -356780,-213814.7 -548920,-293401.5 -192140,-79586.8 -391630,-140102.8 -595610,-180675.8 -203970,-40573 -411440,-61006.7 -619410,-61006.7 H 273540280 33827777 c -207970,0 -415438,20433.7 -619412,61006.7 -203974,40573 -403468,101089 -595608,180675.8 -192139,79586.8 -375994,177859.4 -548915,293401.5 -172921,115542.1 -334072,247794.7 -481129,394852 -147057,147057.1 -279310,308207.1 -394852,481128.1 -115542,172921 -213815,356776 -293402,548916 -79586,192139 -140102,391634 -180675,595608 -40573,203974 -61007,411441 -61007,619412 z"
     sodipodi:nodetypes="cssssssscsssssssccssssssscsssssssccssssssscsssssssccsssssssccsssssssccssssssscsssssssccssssssscsssssssccssssssscsssssssccssssssscccssssssscc" />
  <metadata
     id="metadata1062">
    <rdf:RDF>
      <cc:Work
         rdf:about="">
        <dc:title>SVG Picture created as keyboard-brd.svg date 2022/08/28 08:12:12 </dc:title>
      </cc:Work>
    </rdf:RDF>
  </metadata>
  <path
     id="rect1126"
     style="fill:none;stroke:#ff0000;stroke-width:99999.9;stroke-linecap:round;stroke-linejoin:round"
     d="m 30802199,2037220.3 h 246390571 c 6469370,0 12523780,5208306.4 11677550,11554500.7 l -9792270,73435782 c -846220,6346195 -5208170,11554501 -11677550,11554501 H 18187530 c -6469364,0 -12761591.4,-5243813 -11677552.6,-11554501 L 19124646,13591721 C 20208685,7281033.9 24332834,2037220.3 30802199,2037220.3 Z"
     sodipodi:nodetypes="sssssssss" />
</svg>
