G04 #@! TF.GenerationSoftware,KiCad,Pcbnew,6.0.10-86aedd382b~118~ubuntu20.04.1*
G04 #@! TF.CreationDate,2023-01-08T22:55:38-06:00*
G04 #@! TF.ProjectId,keyboard,6b657962-6f61-4726-942e-6b696361645f,rev?*
G04 #@! TF.SameCoordinates,Original*
G04 #@! TF.FileFunction,Paste,Bot*
G04 #@! TF.FilePolarity,Positive*
%FSLAX46Y46*%
G04 Gerber Fmt 4.6, Leading zero omitted, Abs format (unit mm)*
G04 Created by KiCad (PCBNEW 6.0.10-86aedd382b~118~ubuntu20.04.1) date 2023-01-08 22:55:38*
%MOMM*%
%LPD*%
G01*
G04 APERTURE LIST*
%ADD10R,1.200000X0.900000*%
%ADD11R,0.900000X1.200000*%
G04 APERTURE END LIST*
D10*
X193512800Y-98644900D03*
X193512800Y-95344900D03*
X62544050Y-60544900D03*
X62544050Y-57244900D03*
X255425300Y-79594900D03*
X255425300Y-76294900D03*
X114931550Y-98644900D03*
X114931550Y-95344900D03*
X257012800Y-60544900D03*
X257012800Y-57244900D03*
X62544050Y-79594900D03*
X62544050Y-76294900D03*
X91119050Y-98582400D03*
X91119050Y-95282400D03*
X257806550Y-41432400D03*
X257806550Y-38132400D03*
X62544050Y-98582400D03*
X62544050Y-95282400D03*
X153825300Y-98644900D03*
X153825300Y-95344900D03*
X81594050Y-60544900D03*
X81594050Y-57244900D03*
X157794050Y-41494900D03*
X157794050Y-38194900D03*
X118900300Y-79594900D03*
X118900300Y-76294900D03*
X214944050Y-79594900D03*
X214944050Y-76294900D03*
X138744050Y-79594900D03*
X138744050Y-76294900D03*
X233994050Y-79594900D03*
X233994050Y-76294900D03*
X214944050Y-60544900D03*
X214944050Y-57244900D03*
X119694050Y-41432400D03*
X119694050Y-38132400D03*
X272094050Y-98644900D03*
X272094050Y-95344900D03*
X157794050Y-60544900D03*
X157794050Y-57244900D03*
X194306550Y-79594900D03*
X194306550Y-76294900D03*
X233994050Y-60544900D03*
X233994050Y-57244900D03*
X176844050Y-41494900D03*
X176844050Y-38194900D03*
X176844050Y-79594900D03*
X176844050Y-76294900D03*
X195894050Y-41432400D03*
X195894050Y-38132400D03*
X176844050Y-60544900D03*
X176844050Y-57244900D03*
X195894050Y-60544900D03*
X195894050Y-57244900D03*
X253044050Y-60544900D03*
X253044050Y-57244900D03*
X138744050Y-41432400D03*
X138744050Y-38132400D03*
X233200300Y-98644900D03*
X233200300Y-95344900D03*
X83975300Y-35082400D03*
X83975300Y-31782400D03*
X100644050Y-60544900D03*
X100644050Y-57244900D03*
X119694050Y-60544900D03*
X119694050Y-57244900D03*
X253044050Y-41494900D03*
X253044050Y-38194900D03*
X252250300Y-79532400D03*
X252250300Y-76232400D03*
X214150300Y-98644900D03*
X214150300Y-95344900D03*
X138744050Y-60544900D03*
X138744050Y-57244900D03*
D11*
X99056550Y-44607400D03*
X95756550Y-44607400D03*
D10*
X214944050Y-41494900D03*
X214944050Y-38194900D03*
X157794050Y-79594900D03*
X157794050Y-76294900D03*
X100644050Y-41432400D03*
X100644050Y-38132400D03*
X100644050Y-79532400D03*
X100644050Y-76232400D03*
X233994050Y-41494900D03*
X233994050Y-38194900D03*
X81594050Y-79532400D03*
X81594050Y-76232400D03*
X253044050Y-98582400D03*
X253044050Y-95282400D03*
M02*
