M48
; DRILL file {KiCad 6.0.10-86aedd382b~118~ubuntu20.04.1} date Sun 08 Jan 2023 10:55:33 PM CST
; FORMAT={-:-/ absolute / inch / decimal}
; #@! TF.CreationDate,2023-01-08T22:55:33-06:00
; #@! TF.GenerationSoftware,Kicad,Pcbnew,6.0.10-86aedd382b~118~ubuntu20.04.1
; #@! TF.FileFunction,NonPlated,1,2,NPTH
FMAT,2
INCH
; #@! TA.AperFunction,NonPlated,NPTH,ComponentDrill
T1C0.0689
; #@! TA.AperFunction,NonPlated,NPTH,ComponentDrill
T2C0.1570
%
G90
G05
T1
X1.6374Y-3.7562
X1.7311Y-3.0062
X1.8249Y-2.2562
X1.9186Y-1.5062
X2.0374Y-3.7562
X2.1311Y-3.0062
X2.2249Y-2.2562
X2.3186Y-1.5062
X2.6686Y-1.5062
X2.6686Y-2.2562
X2.6686Y-3.0062
X2.8561Y-3.7562
X3.0686Y-1.5062
X3.0686Y-2.2562
X3.0686Y-3.0062
X3.2561Y-3.7562
X3.4186Y-1.5062
X3.4186Y-2.2562
X3.4186Y-3.0062
X3.8186Y-1.5062
X3.8186Y-2.2562
X3.8186Y-3.0062
X3.8874Y-3.7562
X4.1686Y-1.5062
X4.1686Y-2.2562
X4.1686Y-3.0062
X4.2874Y-3.7562
X4.5686Y-1.5062
X4.5686Y-2.2562
X4.5686Y-3.0062
X4.9186Y-1.5062
X4.9186Y-2.2562
X4.9186Y-3.0062
X5.1999Y-3.7562
X5.3186Y-1.5062
X5.3186Y-2.2562
X5.3186Y-3.0062
X5.5999Y-3.7562
X5.6686Y-1.5062
X5.6686Y-2.2562
X5.6686Y-3.0062
X6.0686Y-1.5062
X6.0686Y-2.2562
X6.0686Y-3.0062
X6.4186Y-1.5062
X6.4186Y-2.2562
X6.4186Y-3.0062
X6.7936Y-3.7562
X6.8186Y-1.5062
X6.8186Y-2.2562
X6.8186Y-3.0062
X7.1686Y-1.5062
X7.1686Y-2.2562
X7.1686Y-3.0062
X7.1936Y-3.7562
X7.5686Y-1.5062
X7.5686Y-2.2562
X7.5686Y-3.0062
X7.9186Y-1.5062
X7.9186Y-2.2562
X7.9186Y-3.0062
X7.9186Y-3.7562
X8.3186Y-1.5062
X8.3186Y-2.2562
X8.3186Y-3.0062
X8.3186Y-3.7562
X8.6686Y-1.5062
X8.6686Y-2.2562
X8.6686Y-3.0062
X8.6686Y-3.7562
X9.0686Y-1.5062
X9.0686Y-2.2562
X9.0686Y-3.0062
X9.0686Y-3.7562
X9.4186Y-1.5062
X9.4186Y-2.2562
X9.4186Y-3.0062
X9.4186Y-3.7562
X9.8186Y-1.5062
X9.8186Y-2.2562
X9.8186Y-3.0062
X9.8186Y-3.7562
X10.1686Y-3.7562
X10.2624Y-3.0062
X10.3561Y-2.2562
X10.4499Y-1.5062
X10.5686Y-3.7562
X10.6624Y-3.0062
X10.7561Y-2.2562
X10.8499Y-1.5062
T2
X1.8374Y-3.7562
X1.9311Y-3.0062
X2.0249Y-2.2562
X2.1186Y-1.5062
X2.8686Y-1.5062
X2.8686Y-2.2562
X2.8686Y-3.0062
X3.0561Y-3.7562
X3.6186Y-1.5062
X3.6186Y-2.2562
X3.6186Y-3.0062
X4.0874Y-3.7562
X4.3686Y-1.5062
X4.3686Y-2.2562
X4.3686Y-3.0062
X5.1186Y-1.5062
X5.1186Y-2.2562
X5.1186Y-3.0062
X5.3999Y-3.7562
X5.8686Y-1.5062
X5.8686Y-2.2562
X5.8686Y-3.0062
X6.6186Y-1.5062
X6.6186Y-2.2562
X6.6186Y-3.0062
X6.9936Y-3.7562
X7.3686Y-1.5062
X7.3686Y-2.2562
X7.3686Y-3.0062
X8.1186Y-1.5062
X8.1186Y-2.2562
X8.1186Y-3.0062
X8.1186Y-3.7562
X8.8686Y-1.5062
X8.8686Y-2.2562
X8.8686Y-3.0062
X8.8686Y-3.7562
X9.6186Y-1.5062
X9.6186Y-2.2562
X9.6186Y-3.0062
X9.6186Y-3.7562
X10.3686Y-3.7562
X10.4624Y-3.0062
X10.5561Y-2.2562
X10.6499Y-1.5062
T0
M30
