M48
; DRILL file {KiCad 6.0.10-86aedd382b~118~ubuntu20.04.1} date Sun 08 Jan 2023 10:55:33 PM CST
; FORMAT={-:-/ absolute / inch / decimal}
; #@! TF.CreationDate,2023-01-08T22:55:33-06:00
; #@! TF.GenerationSoftware,Kicad,Pcbnew,6.0.10-86aedd382b~118~ubuntu20.04.1
; #@! TF.FileFunction,Plated,1,2,PTH
FMAT,2
INCH
; #@! TA.AperFunction,Plated,PTH,ViaDrill
T1C0.0157
; #@! TA.AperFunction,Plated,PTH,ComponentDrill
T2C0.0430
; #@! TA.AperFunction,Plated,PTH,ComponentDrill
T3C0.0579
%
G90
G05
T1
X2.5561Y-2.3812
X2.5874Y-3.1312
X2.6186Y-3.8812
X3.2124Y-1.7562
X9.4624Y-1.9124
X10.4936Y-1.8812
T2
X1.8793Y-1.1814
X1.8793Y-1.7994
X1.9793Y-1.1994
X1.9793Y-1.7814
X2.0793Y-1.1814
X2.0793Y-1.7994
X2.1793Y-1.1994
X2.1793Y-1.7814
X2.2793Y-1.1814
X2.2793Y-1.7994
X2.3793Y-1.1994
X2.3793Y-1.7814
X2.4793Y-1.1814
X2.4793Y-1.7994
X2.5793Y-1.1994
X2.5793Y-1.7814
X2.6793Y-1.1814
X2.6793Y-1.7994
X2.7793Y-1.1994
X2.7793Y-1.7814
X2.8793Y-1.1814
X2.8793Y-1.7994
X2.9793Y-1.1994
X2.9793Y-1.7814
T3
X1.6874Y-3.6562
X1.7811Y-2.9062
X1.8749Y-2.1562
X1.9374Y-3.5562
X1.9686Y-1.4062
X2.0311Y-2.8062
X2.1249Y-2.0562
X2.2186Y-1.3062
X2.7186Y-1.4062
X2.7186Y-2.1562
X2.7186Y-2.9062
X2.9061Y-3.6562
X2.9686Y-1.3062
X2.9686Y-2.0562
X2.9686Y-2.8062
X3.1561Y-3.5562
X3.4686Y-1.4062
X3.4686Y-2.1562
X3.4686Y-2.9062
X3.7186Y-1.3062
X3.7186Y-2.0562
X3.7186Y-2.8062
X3.9374Y-3.6562
X4.1874Y-3.5562
X4.2186Y-1.4062
X4.2186Y-2.1562
X4.2186Y-2.9062
X4.4686Y-1.3062
X4.4686Y-2.0562
X4.4686Y-2.8062
X4.9686Y-1.4062
X4.9686Y-2.1562
X4.9686Y-2.9062
X5.2186Y-1.3062
X5.2186Y-2.0562
X5.2186Y-2.8062
X5.2499Y-3.6562
X5.4999Y-3.5562
X5.7186Y-1.4062
X5.7186Y-2.1562
X5.7186Y-2.9062
X5.9686Y-1.3062
X5.9686Y-2.0562
X5.9686Y-2.8062
X6.4686Y-1.4062
X6.4686Y-2.1562
X6.4686Y-2.9062
X6.7186Y-1.3062
X6.7186Y-2.0562
X6.7186Y-2.8062
X6.8436Y-3.6562
X7.0936Y-3.5562
X7.2186Y-1.4062
X7.2186Y-2.1562
X7.2186Y-2.9062
X7.4686Y-1.3062
X7.4686Y-2.0562
X7.4686Y-2.8062
X7.9686Y-1.4062
X7.9686Y-2.1562
X7.9686Y-2.9062
X7.9686Y-3.6562
X8.2186Y-1.3062
X8.2186Y-2.0562
X8.2186Y-2.8062
X8.2186Y-3.5562
X8.7186Y-1.4062
X8.7186Y-2.1562
X8.7186Y-2.9062
X8.7186Y-3.6562
X8.9686Y-1.3062
X8.9686Y-2.0562
X8.9686Y-2.8062
X8.9686Y-3.5562
X9.4686Y-1.4062
X9.4686Y-2.1562
X9.4686Y-2.9062
X9.4686Y-3.6562
X9.7186Y-1.3062
X9.7186Y-2.0562
X9.7186Y-2.8062
X9.7186Y-3.5562
X10.2186Y-3.6562
X10.3124Y-2.9062
X10.4061Y-2.1562
X10.4686Y-3.5562
X10.4999Y-1.4062
X10.5624Y-2.8062
X10.6561Y-2.0562
X10.7499Y-1.3062
T0
M30
